<svg width="152" height="20" viewBox="0 0 152 20" fill="none" xmlns="http://www.w3.org/2000/svg">
<path d="M5.486 15.104C4.576 15.104 3.75267 14.9047 3.016 14.506C2.288 14.0987 1.716 13.544 1.3 12.842C0.884 12.1313 0.676 11.334 0.676 10.45C0.676 9.566 0.884 8.773 1.3 8.071C1.716 7.36033 2.29233 6.80567 3.029 6.407C3.76567 5.99967 4.589 5.796 5.499 5.796C6.20967 5.796 6.85967 5.91733 7.449 6.16C8.03833 6.394 8.541 6.745 8.957 7.213L8.112 8.032C7.42733 7.31267 6.57367 6.953 5.551 6.953C4.875 6.953 4.264 7.10467 3.718 7.408C3.172 7.71133 2.743 8.13167 2.431 8.669C2.12767 9.19767 1.976 9.79133 1.976 10.45C1.976 11.1087 2.12767 11.7067 2.431 12.244C2.743 12.7727 3.172 13.1887 3.718 13.492C4.264 13.7953 4.875 13.947 5.551 13.947C6.565 13.947 7.41867 13.583 8.112 12.855L8.957 13.674C8.541 14.142 8.034 14.4973 7.436 14.74C6.84667 14.9827 6.19667 15.104 5.486 15.104ZM14.6526 15.104C13.734 15.104 12.9063 14.9047 12.1696 14.506C11.433 14.0987 10.8523 13.5397 10.4276 12.829C10.0116 12.1183 9.80363 11.3253 9.80363 10.45C9.80363 9.57467 10.0116 8.78167 10.4276 8.071C10.8523 7.36033 11.433 6.80567 12.1696 6.407C12.9063 5.99967 13.734 5.796 14.6526 5.796C15.5626 5.796 16.386 5.99967 17.1226 6.407C17.8593 6.80567 18.4356 7.36033 18.8516 8.071C19.2676 8.773 19.4756 9.566 19.4756 10.45C19.4756 11.334 19.2676 12.1313 18.8516 12.842C18.4356 13.544 17.8593 14.0987 17.1226 14.506C16.386 14.9047 15.5626 15.104 14.6526 15.104ZM14.6526 13.947C15.32 13.947 15.918 13.7953 16.4466 13.492C16.984 13.1887 17.4043 12.7727 17.7076 12.244C18.0196 11.7067 18.1756 11.1087 18.1756 10.45C18.1756 9.79133 18.0196 9.19767 17.7076 8.669C17.4043 8.13167 16.984 7.71133 16.4466 7.408C15.918 7.10467 15.32 6.953 14.6526 6.953C13.9853 6.953 13.3786 7.10467 12.8326 7.408C12.2953 7.71133 11.8706 8.13167 11.5586 8.669C11.2553 9.19767 11.1036 9.79133 11.1036 10.45C11.1036 11.1087 11.2553 11.7067 11.5586 12.244C11.8706 12.7727 12.2953 13.1887 12.8326 13.492C13.3786 13.7953 13.9853 13.947 14.6526 13.947ZM21.7671 5.9L24.1461 9.228L26.5251 5.9H28.0461L24.9651 10.268L28.2931 15H26.7591L24.1461 11.373L21.5461 15H20.0511L23.3661 10.32L20.2721 5.9H21.7671ZM33.175 5.9C34.3537 5.9 35.281 6.18167 35.957 6.745C36.633 7.30833 36.971 8.084 36.971 9.072C36.971 10.06 36.633 10.8357 35.957 11.399C35.281 11.9623 34.3537 12.244 33.175 12.244H30.926V15H29.626V5.9H33.175ZM33.136 11.113C33.9593 11.113 34.5877 10.9397 35.021 10.593C35.4543 10.2377 35.671 9.73067 35.671 9.072C35.671 8.41333 35.4543 7.91067 35.021 7.564C34.5877 7.20867 33.9593 7.031 33.136 7.031H30.926V11.113H33.136ZM44.2373 12.725H39.4013L38.4003 15H37.0613L41.1823 5.9H42.4693L46.6033 15H45.2383L44.2373 12.725ZM43.7823 11.685L41.8193 7.226L39.8563 11.685H43.7823ZM55.9998 5.9V15H54.6998V10.944H49.4738V15H48.1738V5.9H49.4738V9.813H54.6998V5.9H55.9998ZM58.8379 5.9H60.1249V12.92L65.5069 5.9H66.7029V15H65.4289V7.993L60.0339 15H58.8379V5.9ZM75.793 7.031H72.673V15H71.399V7.031H68.292V5.9H75.793V7.031ZM81.3641 9.072C82.4474 9.072 83.2751 9.31467 83.8471 9.8C84.4277 10.2853 84.7181 11.0003 84.7181 11.945C84.7181 12.9417 84.4061 13.7 83.7821 14.22C83.1667 14.74 82.2827 15 81.1301 15H77.3731V5.9H78.6601V9.072H81.3641ZM81.0781 13.973C81.8321 13.973 82.4084 13.804 82.8071 13.466C83.2144 13.1193 83.4181 12.621 83.4181 11.971C83.4181 10.723 82.6381 10.099 81.0781 10.099H78.6601V13.973H81.0781ZM93.6288 5.9C94.8075 5.9 95.7348 6.18167 96.4108 6.745C97.0868 7.30833 97.4248 8.084 97.4248 9.072C97.4248 10.06 97.0868 10.8357 96.4108 11.399C95.7348 11.9623 94.8075 12.244 93.6288 12.244H91.3798V15H90.0798V5.9H93.6288ZM93.5898 11.113C94.4132 11.113 95.0415 10.9397 95.4748 10.593C95.9082 10.2377 96.1248 9.73067 96.1248 9.072C96.1248 8.41333 95.9082 7.91067 95.4748 7.564C95.0415 7.20867 94.4132 7.031 93.5898 7.031H91.3798V11.113H93.5898ZM99.3347 5.9H103.17C104.132 5.9 104.985 6.09067 105.731 6.472C106.476 6.85333 107.052 7.39067 107.46 8.084C107.876 8.76867 108.084 9.55733 108.084 10.45C108.084 11.3427 107.876 12.1357 107.46 12.829C107.052 13.5137 106.476 14.0467 105.731 14.428C104.985 14.8093 104.132 15 103.17 15H99.3347V5.9ZM103.092 13.869C103.828 13.869 104.474 13.726 105.029 13.44C105.592 13.154 106.025 12.7553 106.329 12.244C106.632 11.724 106.784 11.126 106.784 10.45C106.784 9.774 106.632 9.18033 106.329 8.669C106.025 8.149 105.592 7.746 105.029 7.46C104.474 7.174 103.828 7.031 103.092 7.031H100.635V13.869H103.092ZM111.375 7.031V10.203H115.938V11.321H111.375V15H110.075V5.9H116.497V7.031H111.375Z" fill="white"/>
</svg>
