<svg width="118" height="20" viewBox="0 0 118 20" fill="none" xmlns="http://www.w3.org/2000/svg">
<path d="M4.966 5.9C6.14467 5.9 7.072 6.18167 7.748 6.745C8.424 7.30833 8.762 8.084 8.762 9.072C8.762 10.06 8.424 10.8357 7.748 11.399C7.072 11.9623 6.14467 12.244 4.966 12.244H2.717V15H1.417V5.9H4.966ZM4.927 11.113C5.75033 11.113 6.37867 10.9397 6.812 10.593C7.24533 10.2377 7.462 9.73067 7.462 9.072C7.462 8.41333 7.24533 7.91067 6.812 7.564C6.37867 7.20867 5.75033 7.031 4.927 7.031H2.717V11.113H4.927ZM16.0283 12.725H11.1923L10.1913 15H8.85229L12.9733 5.9H14.2603L18.3943 15H17.0293L16.0283 12.725ZM15.5733 11.685L13.6103 7.226L11.6473 11.685H15.5733ZM23.9069 15.104C22.9969 15.104 22.1736 14.9047 21.4369 14.506C20.7089 14.0987 20.1369 13.544 19.7209 12.842C19.3049 12.1313 19.0969 11.334 19.0969 10.45C19.0969 9.566 19.3049 8.773 19.7209 8.071C20.1369 7.36033 20.7132 6.80567 21.4499 6.407C22.1866 5.99967 23.0099 5.796 23.9199 5.796C24.6306 5.796 25.2806 5.91733 25.8699 6.16C26.4592 6.394 26.9619 6.745 27.3779 7.213L26.5329 8.032C25.8482 7.31267 24.9946 6.953 23.9719 6.953C23.2959 6.953 22.6849 7.10467 22.1389 7.408C21.5929 7.71133 21.1639 8.13167 20.8519 8.669C20.5486 9.19767 20.3969 9.79133 20.3969 10.45C20.3969 11.1087 20.5486 11.7067 20.8519 12.244C21.1639 12.7727 21.5929 13.1887 22.1389 13.492C22.6849 13.7953 23.2959 13.947 23.9719 13.947C24.9859 13.947 25.8396 13.583 26.5329 12.855L27.3779 13.674C26.9619 14.142 26.4549 14.4973 25.8569 14.74C25.2676 14.9827 24.6176 15.104 23.9069 15.104ZM37.008 5.9V15H35.734V7.031H30.456V15H29.169V5.9H37.008ZM46.4497 13.869V15H39.8457V5.9H46.2677V7.031H41.1457V9.826H45.7087V10.931H41.1457V13.869H46.4497ZM55.2252 5.9V15H53.9382V11.399C52.9762 11.7717 52.0879 11.958 51.2732 11.958C50.1639 11.958 49.3016 11.6893 48.6862 11.152C48.0796 10.6147 47.7762 9.84767 47.7762 8.851V5.9H49.0502V8.708C49.0502 9.384 49.2539 9.904 49.6612 10.268C50.0772 10.632 50.6622 10.814 51.4162 10.814C52.2569 10.814 53.0976 10.6233 53.9382 10.242V5.9H55.2252ZM63.9785 12.725H59.1425L58.1415 15H56.8025L60.9235 5.9H62.2105L66.3445 15H64.9795L63.9785 12.725ZM63.5235 11.685L61.5605 7.226L59.5975 11.685H63.5235ZM73.711 7.031H70.591V15H69.317V7.031H66.21V5.9H73.711V7.031ZM80.749 12.725H75.913L74.912 15H73.573L77.694 5.9H78.981L83.115 15H81.75L80.749 12.725ZM80.294 11.685L78.331 7.226L76.368 11.685H80.294ZM90.4815 7.031H87.3615V15H86.0875V7.031H82.9805V5.9H90.4815V7.031ZM96.0525 9.072C97.1359 9.072 97.9635 9.31467 98.5355 9.8C99.1162 10.2853 99.4065 11.0003 99.4065 11.945C99.4065 12.9417 99.0945 13.7 98.4705 14.22C97.8552 14.74 96.9712 15 95.8185 15H92.0615V5.9H93.3485V9.072H96.0525ZM95.7665 13.973C96.5205 13.973 97.0969 13.804 97.4955 13.466C97.9029 13.1193 98.1065 12.621 98.1065 11.971C98.1065 10.723 97.3265 10.099 95.7665 10.099H93.3485V13.973H95.7665Z" fill="white"/>
</svg>
