<svg width="147" height="36" viewBox="0 0 147 36" fill="none" xmlns="http://www.w3.org/2000/svg">
<path d="M21.1 19.6H16.7L13.3 6.4L9.9 19.6H5.5L0 0.300003H4.6L8 14.3L11.7 0.300003H14.9L18.6 14.3L22 0.300003H26.6L21.1 19.6Z" fill="#0B0C0C"/>
<path d="M32.6 19.6H28.5V0.300003H32.6V19.6Z" fill="#0B0C0C"/>
<path d="M43.3 20C39.9 20 37.1 19 35.1 16.9L37.3 13.8C39 15.5 41 16.4 43.4 16.4C44.5 16.4 45.3 16.2 45.9 15.8C46.5 15.4 46.8 14.9 46.8 14.3C46.8 13.8 46.5 13.3 46 13C45.4 12.7 44.8 12.4 43.9 12.2C43.1 12 42.2 11.8 41.2 11.5C40.2 11.2 39.3 10.9 38.5 10.5C37.7 10.1 37 9.6 36.4 8.8C36 8 35.8 7 35.8 5.9C35.8 4.2 36.5 2.8 37.8 1.7C39.1 0.6 40.9 0 43.1 0C46.2 0 48.7 0.9 50.6 2.7L48.3 5.7C46.8 4.3 44.9 3.6 42.7 3.6C41.8 3.6 41.2 3.8 40.7 4.1C40.2 4.5 40 4.9 40 5.5C40 6 40.3 6.4 40.8 6.7C41.3 7 42 7.3 42.9 7.4C43.7 7.6 44.6 7.8 45.6 8.1C46.6 8.4 47.4 8.7 48.3 9.1C49.1 9.5 49.8 10.1 50.4 10.9C51 11.7 51.2 12.7 51.2 13.8C51.2 15.7 50.5 17.2 49.2 18.3C47.9 19.4 45.8 20 43.3 20Z" fill="#0B0C0C"/>
<path d="M67.5 19.6H53.9V0.300003H67.6V3.9H58V8H67.4V11.6H58V16H67.6V19.6H67.5Z" fill="#0B0C0C"/>
<path d="M86.4 19.6H81.7L77.9 12.7H74.9V19.6H70.8V0.300003H79.8C81.8 0.300003 83.4 0.900003 84.5 2C85.7 3.2 86.3 4.7 86.3 6.5C86.3 8.1 85.9 9.4 85.1 10.4C84.3 11.4 83.3 12 82.1 12.3L86.4 19.6ZM79.2 9.1C80.1 9.1 80.7 8.9 81.3 8.4C81.8 7.9 82.1 7.3 82.1 6.5C82.1 5.7 81.8 5.1 81.3 4.6C80.8 4.1 80.1 3.9 79.2 3.9H74.9V9.1H79.2Z" fill="#0B0C0C"/>
<path d="M103.1 20C101.4 20 99.9 19.7 98.6 19.1C97.3 18.5 96.3 17.8 95.5 16.9L97.6 14.1C98.3 14.8 99.1 15.3 100 15.7C101 16.1 101.9 16.3 102.9 16.3C104.1 16.3 105 16.1 105.6 15.6C106.2 15.1 106.6 14.6 106.6 13.8C106.6 13 106.3 12.5 105.7 12.1C105.1 11.7 104.1 11.6 102.7 11.6C101.5 11.6 100.7 11.6 100.3 11.7V8C100.5 8 101.3 8 102.7 8C105.1 8 106.3 7.3 106.3 5.9C106.3 5.2 106 4.6 105.3 4.2C104.6 3.8 103.8 3.6 102.7 3.6C100.8 3.6 99.2 4.3 97.8 5.6L95.7 3C97.6 1 100 0 103.2 0C105.5 0 107.2 0.5 108.6 1.4C109.9 2.3 110.6 3.6 110.6 5.2C110.6 6.4 110.2 7.3 109.4 8.1C108.6 8.9 107.6 9.4 106.4 9.6C107.5 9.7 108.6 10.2 109.5 11C110.4 11.8 110.9 12.9 110.9 14.2C110.9 15.9 110.2 17.2 108.8 18.3C107.3 19.5 105.4 20 103.1 20Z" fill="#0B0C0C"/>
<path d="M121.3 20C118.5 20 116.4 19.1 115 17.2C113.6 15.3 112.9 12.9 112.9 10C112.9 7 113.7 4.6 115.3 2.8C116.9 1 119.1 0 121.9 0C124.1 0 126 0.7 127.6 2L125.7 5.2C124.6 4.2 123.4 3.7 121.8 3.7C120.4 3.7 119.2 4.2 118.3 5.3C117.4 6.4 116.9 7.7 116.9 9.2C116.9 9.4 116.9 9.5 116.9 9.6C117.4 8.9 118.1 8.3 119 7.8C119.9 7.3 120.9 7.1 121.9 7.1C123.7 7.1 125.3 7.7 126.6 8.8C127.9 9.9 128.5 11.5 128.5 13.4C128.5 15.3 127.8 16.9 126.4 18.2C125.2 19.4 123.5 20 121.3 20ZM121 16.3C122 16.3 122.9 16 123.5 15.4C124.1 14.8 124.4 14.2 124.4 13.4C124.4 12.5 124.1 11.7 123.4 11.2C122.7 10.7 121.9 10.5 120.8 10.5C119.3 10.5 118 11.1 117 12.3C117.1 13.4 117.5 14.3 118.1 15.1C118.9 15.9 119.8 16.3 121 16.3Z" fill="#0B0C0C"/>
<path d="M143.1 18.5C141.9 19.5 140.4 20 138.6 20C136.8 20 135.3 19.5 134.1 18.5C132.9 17.5 132 16.3 131.4 14.8C130.8 13.3 130.6 11.7 130.6 10C130.6 8.3 130.9 6.7 131.4 5.2C131.9 3.7 132.8 2.5 134.1 1.5C135.3 0.5 136.9 0 138.6 0C140.4 0 141.9 0.5 143.1 1.5C144.3 2.5 145.2 3.7 145.8 5.2C146.4 6.7 146.6 8.3 146.6 10C146.6 11.7 146.3 13.3 145.8 14.8C145.2 16.3 144.3 17.5 143.1 18.5ZM135.7 14.6C136.3 15.8 137.3 16.3 138.6 16.3C139.9 16.3 140.9 15.7 141.5 14.6C142.1 13.4 142.4 11.9 142.4 10C142.4 8.1 142.1 6.6 141.5 5.4C140.9 4.3 139.9 3.7 138.6 3.7C137.3 3.7 136.3 4.3 135.7 5.4C135.1 6.6 134.8 8.1 134.8 10C134.7 11.9 135 13.4 135.7 14.6Z" fill="#0B0C0C"/>
<path d="M8.5 33.2H7.9V27.1H5.7V26.6H10.6V27.1H8.5V33.2Z" fill="black"/>
<path d="M13.9 33.2H13.4V28.4H13.9V29.2C14.4 28.6 14.9 28.3 15.5 28.3V28.9C15.4 28.9 15.4 28.9 15.2 28.9C15 28.9 14.7 29 14.4 29.2C14.1 29.4 13.9 29.6 13.8 29.8V33.2H13.9Z" fill="black"/>
<path d="M22.5 33.2H22V32.6C21.6 33.1 21 33.3 20.4 33.3C20 33.3 19.6 33.2 19.2 32.9C18.8 32.6 18.7 32.2 18.7 31.7C18.7 31.2 18.9 30.8 19.2 30.5C19.5 30.2 19.9 30.1 20.4 30.1C21.1 30.1 21.6 30.3 22 30.8V29.8C22 29.5 21.9 29.2 21.6 29C21.4 28.8 21 28.7 20.7 28.7C20.1 28.7 19.6 28.9 19.2 29.4L18.9 29C19.4 28.5 20 28.2 20.7 28.2C21.2 28.2 21.6 28.3 22 28.6C22.3 28.9 22.5 29.2 22.5 29.7V33.2ZM20.6 32.9C21.2 32.9 21.7 32.7 22 32.2V31.1C21.7 30.7 21.2 30.4 20.6 30.4C20.2 30.4 19.9 30.5 19.7 30.7C19.5 30.9 19.3 31.2 19.3 31.6C19.3 32 19.4 32.2 19.7 32.4C19.9 32.8 20.2 32.9 20.6 32.9Z" fill="black"/>
<path d="M26.9 27.7C26.8 27.7 26.7 27.7 26.6 27.6C26.5 27.5 26.5 27.4 26.5 27.3C26.5 27.2 26.5 27.1 26.6 27C26.7 26.9 26.8 26.9 26.9 26.9C27 26.9 27.1 26.9 27.2 27C27.3 27.1 27.3 27.2 27.3 27.3C27.3 27.4 27.3 27.5 27.2 27.6C27.1 27.6 27 27.7 26.9 27.7ZM27.1 33.2H26.6V28.4H27.1V33.2Z" fill="black"/>
<path d="M35 33.2H34.5V30C34.5 29.6 34.4 29.3 34.2 29.1C34 28.9 33.7 28.8 33.3 28.8C33 28.8 32.7 28.9 32.4 29C32.1 29.2 31.9 29.4 31.7 29.6V33.2H31.2V28.4H31.7V29.1C31.9 28.9 32.1 28.7 32.5 28.5C32.8 28.3 33.1 28.2 33.5 28.2C34.5 28.2 35 28.7 35 29.8V33.2Z" fill="black"/>
<path d="M39.3 27.7C39.2 27.7 39.1 27.7 39 27.6C38.9 27.5 38.9 27.4 38.9 27.3C38.9 27.2 38.9 27.1 39 27C39.1 26.9 39.2 26.9 39.3 26.9C39.4 26.9 39.5 26.9 39.6 27C39.7 27.1 39.7 27.2 39.7 27.3C39.7 27.4 39.7 27.5 39.6 27.6C39.5 27.6 39.4 27.7 39.3 27.7ZM39.6 33.2H39V28.4H39.5V33.2H39.6Z" fill="black"/>
<path d="M47.4 33.2H46.9V30C46.9 29.6 46.8 29.3 46.6 29.1C46.4 28.9 46.1 28.8 45.7 28.8C45.4 28.8 45.1 28.9 44.8 29C44.5 29.2 44.3 29.4 44.1 29.6V33.2H43.6V28.4H44.1V29.1C44.3 28.9 44.5 28.7 44.9 28.5C45.2 28.3 45.5 28.2 45.9 28.2C46.9 28.2 47.4 28.7 47.4 29.8V33.2Z" fill="black"/>
<path d="M53.4 35.2C53 35.2 52.6 35.1 52.3 35C52 34.9 51.7 34.7 51.5 34.4L51.8 34C52 34.2 52.2 34.4 52.5 34.5C52.7 34.6 53 34.7 53.4 34.7C53.9 34.7 54.3 34.6 54.6 34.3C54.9 34 55.1 33.7 55.1 33.1V32.3C54.9 32.6 54.7 32.8 54.4 32.9C54.1 33.1 53.8 33.2 53.4 33.2C52.8 33.2 52.2 33 51.8 32.5C51.4 32 51.2 31.4 51.2 30.7C51.2 29.9 51.4 29.3 51.8 28.9C52.2 28.5 52.7 28.2 53.3 28.2C54 28.2 54.5 28.5 55 29.1V28.3H55.5V33C55.5 33.7 55.3 34.2 54.9 34.5C54.5 35 54 35.2 53.4 35.2ZM53.4 32.9C53.7 32.9 54 32.8 54.3 32.6C54.6 32.4 54.8 32.2 55 32V29.7C54.9 29.5 54.6 29.2 54.3 29.1C54 28.9 53.7 28.8 53.4 28.8C52.9 28.8 52.5 29 52.2 29.4C51.9 29.8 51.7 30.3 51.7 30.9C51.7 31.5 51.9 32 52.2 32.4C52.5 32.7 52.9 32.9 53.4 32.9Z" fill="black"/>
<path d="M69.8 33.2H69C68.7 33 68.5 32.7 68.2 32.4C67.7 33 67 33.3 66.3 33.3C65.7 33.3 65.2 33.1 64.9 32.8C64.5 32.5 64.3 32 64.3 31.5C64.3 31 64.4 30.6 64.7 30.3C65 30 65.3 29.7 65.8 29.5C65.4 28.9 65.3 28.4 65.3 28C65.3 27.6 65.5 27.2 65.8 26.9C66.1 26.6 66.5 26.5 66.9 26.5C67.3 26.5 67.7 26.6 67.9 26.8C68.2 27 68.3 27.3 68.3 27.7C68.3 27.9 68.3 28.1 68.2 28.2C68.1 28.3 68 28.5 68 28.6C67.9 28.7 67.8 28.8 67.6 29C67.4 29.1 67.3 29.2 67.2 29.3C67.1 29.4 66.9 29.5 66.7 29.6C66.9 29.9 67.2 30.2 67.6 30.6C68 31.1 68.3 31.4 68.5 31.6C68.8 31.1 69.1 30.6 69.3 30L69.8 30.2C69.5 31 69.2 31.6 68.9 32C68.9 32.3 69.3 32.7 69.8 33.2ZM66.3 32.9C66.9 32.9 67.4 32.6 67.9 32.1C67.4 31.6 67.1 31.2 66.9 31C66.5 30.5 66.2 30.2 66 29.9C65.6 30.1 65.4 30.3 65.2 30.6C65 30.9 64.9 31.1 64.9 31.5C64.9 31.9 65 32.3 65.3 32.5C65.5 32.8 65.9 32.9 66.3 32.9ZM65.7 28C65.7 28.4 65.9 28.8 66.2 29.3C66.4 29.2 66.6 29.1 66.8 29C66.9 28.9 67.1 28.8 67.2 28.7C67.4 28.6 67.5 28.4 67.5 28.3C67.6 28.2 67.6 28 67.6 27.8C67.6 27.5 67.5 27.3 67.4 27.2C67.3 27.1 67 27 66.8 27C66.5 27 66.3 27.1 66.1 27.3C65.8 27.5 65.7 27.7 65.7 28Z" fill="black"/>
<path d="M81.6 33.3C80.6 33.3 79.9 33 79.2 32.3C78.6 31.7 78.2 30.8 78.2 29.8C78.2 28.8 78.5 28 79.2 27.3C79.8 26.7 80.6 26.3 81.6 26.3C82.6 26.3 83.4 26.7 84 27.5L83.6 28C83.4 27.7 83.1 27.5 82.8 27.3C82.4 27.1 82 27 81.6 27C80.8 27 80.2 27.3 79.6 27.8C79 28.3 78.8 29 78.8 29.9C78.8 30.7 79.1 31.4 79.6 32C80.1 32.5 80.8 32.8 81.6 32.8C82 32.8 82.4 32.7 82.7 32.5C83 32.3 83.3 32.1 83.5 31.8L84 32.1C83.4 32.9 82.6 33.3 81.6 33.3Z" fill="black"/>
<path d="M89.7 33.3C89 33.3 88.5 33.1 88 32.6C87.6 32.1 87.4 31.5 87.4 30.8C87.4 30.1 87.6 29.5 88 29C88.4 28.5 89 28.3 89.7 28.3C90.4 28.3 91 28.5 91.4 29C91.8 29.5 92 30.1 92 30.8C92 31.5 91.8 32.1 91.4 32.6C91 33.1 90.4 33.3 89.7 33.3ZM89.7 32.9C90.2 32.9 90.7 32.7 91 32.3C91.3 31.9 91.5 31.4 91.5 30.8C91.5 30.2 91.3 29.8 91 29.4C90.7 29 90.3 28.8 89.7 28.8C89.2 28.8 88.7 29 88.4 29.4C88.1 29.8 87.9 30.3 87.9 30.8C87.9 31.4 88.1 31.8 88.4 32.2C88.7 32.7 89.1 32.9 89.7 32.9Z" fill="black"/>
<path d="M99.5 33.2H99V30C99 29.6 98.9 29.3 98.7 29.1C98.5 28.9 98.2 28.8 97.8 28.8C97.5 28.8 97.2 28.9 96.9 29C96.6 29.1 96.4 29.4 96.2 29.6V33.2H95.7V28.4H96.2V29.1C96.4 28.9 96.6 28.7 97 28.5C97.3 28.3 97.6 28.2 98 28.2C99 28.2 99.5 28.7 99.5 29.8V33.2Z" fill="black"/>
<path d="M105 33.3C104.2 33.3 103.6 33 103.2 32.5L103.5 32.1C103.7 32.3 103.9 32.5 104.2 32.6C104.5 32.7 104.8 32.8 105.1 32.8C105.5 32.8 105.8 32.7 106 32.5C106.2 32.3 106.3 32.1 106.3 31.8C106.3 31.6 106.2 31.4 106 31.2C105.8 31.1 105.5 31 105.2 30.9C104.9 30.8 104.6 30.8 104.3 30.7C104 30.6 103.7 30.5 103.5 30.3C103.3 30.1 103.2 29.9 103.2 29.5C103.2 29.1 103.4 28.8 103.7 28.6C104 28.3 104.4 28.2 104.9 28.2C105.6 28.2 106.2 28.4 106.6 28.9L106.3 29.3C106 28.9 105.5 28.7 104.9 28.7C104.5 28.7 104.2 28.8 104 28.9C103.8 29.1 103.7 29.3 103.7 29.5C103.7 29.7 103.8 29.9 104 30C104.2 30.1 104.5 30.2 104.8 30.3C105.1 30.4 105.4 30.4 105.7 30.5C106 30.6 106.2 30.7 106.5 30.9C106.7 31.1 106.8 31.4 106.8 31.7C106.8 32.1 106.6 32.4 106.3 32.7C106.1 33.2 105.6 33.3 105 33.3Z" fill="black"/>
<path d="M114.4 33.2H113.9V32.5C113.7 32.7 113.4 32.9 113.1 33.1C112.8 33.3 112.5 33.3 112.2 33.3C111.7 33.3 111.3 33.2 111.1 32.9C110.8 32.7 110.7 32.3 110.7 31.7V28.3H111.2V31.6C111.2 32 111.3 32.4 111.5 32.5C111.7 32.7 112 32.8 112.4 32.8C112.7 32.8 113 32.7 113.3 32.6C113.6 32.4 113.8 32.3 114 32V28.4H114.5V33.2H114.4Z" fill="black"/>
<path d="M119 33.2H118.5V26.6H119V33.2Z" fill="black"/>
<path d="M124.1 33.3C123.5 33.3 123.2 33 123.2 32.3V28.9H122.4V28.4H123.2V27.1H123.7V28.4H124.7V28.9H123.7V32.2C123.7 32.6 123.9 32.9 124.2 32.9C124.4 32.9 124.6 32.8 124.7 32.7L124.9 33.1C124.7 33.2 124.4 33.3 124.1 33.3Z" fill="black"/>
<path d="M128.5 27.7C128.4 27.7 128.3 27.7 128.2 27.6C128.1 27.5 128.1 27.4 128.1 27.3C128.1 27.2 128.1 27.1 128.2 27C128.3 26.9 128.4 26.9 128.5 26.9C128.6 26.9 128.7 26.9 128.8 27C128.9 27.1 128.9 27.2 128.9 27.3C128.9 27.4 128.9 27.5 128.8 27.6C128.7 27.6 128.6 27.7 128.5 27.7ZM128.8 33.2H128.3V28.4H128.8V33.2Z" fill="black"/>
<path d="M136.6 33.2H136.1V30C136.1 29.6 136 29.3 135.8 29.1C135.6 28.9 135.3 28.8 134.9 28.8C134.6 28.8 134.3 28.9 134 29C133.7 29.1 133.5 29.4 133.3 29.6V33.2H132.8V28.4H133.3V29.1C133.5 28.9 133.7 28.7 134.1 28.5C134.4 28.3 134.7 28.2 135.1 28.2C136.1 28.2 136.6 28.7 136.6 29.8V33.2Z" fill="black"/>
<path d="M142.6 35.2C142.2 35.2 141.8 35.1 141.5 35C141.2 34.9 140.9 34.7 140.7 34.4L141 34C141.2 34.2 141.4 34.4 141.7 34.5C141.9 34.6 142.2 34.7 142.6 34.7C143.1 34.7 143.5 34.6 143.8 34.3C144.1 34 144.3 33.7 144.3 33.1V32.3C144.1 32.6 143.9 32.8 143.6 32.9C143.3 33.1 143 33.2 142.6 33.2C142 33.2 141.4 33 141 32.5C140.6 32 140.4 31.4 140.4 30.7C140.4 29.9 140.6 29.3 141 28.9C141.4 28.5 141.9 28.2 142.5 28.2C143.2 28.2 143.7 28.5 144.2 29.1V28.3H144.7V33C144.7 33.7 144.5 34.2 144.1 34.5C143.8 35 143.2 35.2 142.6 35.2ZM142.7 32.9C143 32.9 143.3 32.8 143.6 32.6C143.9 32.4 144.1 32.2 144.3 32V29.7C144.2 29.5 143.9 29.2 143.6 29.1C143.3 28.9 143 28.8 142.7 28.8C142.2 28.8 141.8 29 141.5 29.4C141.2 29.8 141 30.3 141 30.9C141 31.5 141.2 32 141.5 32.4C141.8 32.8 142.1 32.9 142.7 32.9Z" fill="black"/>
</svg>
