<svg width="141" height="135" viewBox="0 0 141 135" fill="none" xmlns="http://www.w3.org/2000/svg">
<path d="M53.9383 86.3083L39.9498 115.045L64.9723 115.346C76.1269 115.406 83.1212 103.382 77.574 93.703C74.9813 89.194 70.218 86.4285 65.0326 86.4285L53.9383 86.3083Z" fill="url(#paint0_linear)"/>
<path d="M53.6972 6.34974C59.9679 -2.8485 73.8358 -1.8866 78.7197 8.15332L104.345 60.6975L140.04 133.983C120.323 133.983 102.355 122.741 93.7332 105.066L81.6742 80.2363L52.6722 20.7182C50.4412 16.0891 50.803 10.6182 53.6972 6.34974Z" fill="url(#paint1_linear)"/>
<path d="M46.0397 23.7844C45.8588 23.4237 45.7382 23.0629 45.5573 22.7022L27.107 60.6976L1.4815 113.302C-3.40242 123.282 4.43596 134.825 15.5303 134.043C20.7157 133.682 25.2981 130.556 27.529 125.927L49.7177 80.2965L61.5958 55.8881L46.0397 23.7844Z" fill="url(#paint2_linear)"/>
<path d="M77.755 6.34967C79.383 8.75444 80.2271 11.5199 80.2271 14.3455C80.2271 11.5199 79.383 8.75444 77.755 6.34967Z" fill="url(#paint3_linear)"/>
<defs>
<linearGradient id="paint0_linear" x1="42.3917" y1="94.2051" x2="73.4413" y2="111.306" gradientUnits="userSpaceOnUse">
<stop offset="0.1783" stop-color="#FAA21B"/>
<stop offset="0.1868" stop-color="#FAA61A"/>
<stop offset="0.2397" stop-color="#FCB918"/>
<stop offset="0.2933" stop-color="#FDC716"/>
<stop offset="0.3478" stop-color="#FECF14"/>
<stop offset="0.4044" stop-color="#FFD213"/>
</linearGradient>
<linearGradient id="paint1_linear" x1="66.5971" y1="14.425" x2="121.548" y2="131.391" gradientUnits="userSpaceOnUse">
<stop stop-color="#FDB814"/>
<stop offset="1" stop-color="#00A651"/>
</linearGradient>
<linearGradient id="paint2_linear" x1="7.85585" y1="128.328" x2="56.8814" y2="35.618" gradientUnits="userSpaceOnUse">
<stop stop-color="#242063"/>
<stop offset="0.1799" stop-color="#5C2458"/>
<stop offset="0.3598" stop-color="#8A274C"/>
<stop offset="0.5222" stop-color="#B1273E"/>
<stop offset="0.663" stop-color="#CF2631"/>
<stop offset="0.7768" stop-color="#E32629"/>
<stop offset="0.8494" stop-color="#EE2525"/>
</linearGradient>
<linearGradient id="paint3_linear" x1="77.6723" y1="12.7676" x2="80.1987" y2="7.99004" gradientUnits="userSpaceOnUse">
<stop stop-color="#242063"/>
<stop offset="0.1799" stop-color="#5C2458"/>
<stop offset="0.3598" stop-color="#8A274C"/>
<stop offset="0.5222" stop-color="#B1273E"/>
<stop offset="0.663" stop-color="#CF2631"/>
<stop offset="0.7768" stop-color="#E32629"/>
<stop offset="0.8494" stop-color="#EE2525"/>
</linearGradient>
</defs>
</svg>
